<svg xmlns="http://www.w3.org/2000/svg" viewBox="40 40 320 200" width="320" height="200" role="img" aria-label="Thawr mark">
<g transform="translate(0,0) scale(1.0)">
<path d="M112.0,190.0 A88.0,88.0 0 0 1 288.0,190.0 L288.0,228.0 L112.0,228.0 Z" fill="#0b2233"/>
<polygon points="68.0,190.0 112.0,190.0 112.0,228.0 68.0,228.0" fill="#1d4f7a" stroke="#ffffff" stroke-width="2" stroke-linejoin="round"/>
<polygon points="288.0,190.0 332.0,190.0 332.0,228.0 288.0,228.0" fill="#4fc3c8" stroke="#ffffff" stroke-width="2" stroke-linejoin="round"/>
<polygon points="68.0,190.0 112.0,190.0 78.0,139.5" fill="#1d4f7a" stroke="#ffffff" stroke-width="2" stroke-linejoin="round"/>
<polygon points="112.0,190.0 78.0,139.5 123.8,146.0" fill="#24678f" stroke="#ffffff" stroke-width="2" stroke-linejoin="round"/>
<polygon points="78.0,139.5 123.8,146.0 106.7,96.7" fill="#1d4f7a" stroke="#ffffff" stroke-width="2" stroke-linejoin="round"/>
<polygon points="123.8,146.0 106.7,96.7 156.0,113.8" fill="#2b8aa8" stroke="#ffffff" stroke-width="2" stroke-linejoin="round"/>
<polygon points="106.7,96.7 156.0,113.8 149.5,68.0" fill="#24678f" stroke="#ffffff" stroke-width="2" stroke-linejoin="round"/>
<polygon points="149.5,68.0 156.0,113.8 200.0,58.0" fill="#2b8aa8" stroke="#ffffff" stroke-width="2" stroke-linejoin="round"/>
<polygon points="156.0,113.8 200.0,58.0 200.0,102.0" fill="#2b8aa8" stroke="#ffffff" stroke-width="2" stroke-linejoin="round"/>
<polygon points="200.0,58.0 200.0,102.0 250.5,68.0" fill="#3aaebf" stroke="#ffffff" stroke-width="2" stroke-linejoin="round"/>
<polygon points="200.0,102.0 250.5,68.0 244.0,113.8" fill="#2b8aa8" stroke="#ffffff" stroke-width="2" stroke-linejoin="round"/>
<polygon points="250.5,68.0 244.0,113.8 293.3,96.7" fill="#4fc3c8" stroke="#ffffff" stroke-width="2" stroke-linejoin="round"/>
<polygon points="244.0,113.8 293.3,96.7 276.2,146.0" fill="#3aaebf" stroke="#ffffff" stroke-width="2" stroke-linejoin="round"/>
<polygon points="293.3,96.7 276.2,146.0 322.0,139.5" fill="#4fc3c8" stroke="#ffffff" stroke-width="2" stroke-linejoin="round"/>
<polygon points="322.0,139.5 276.2,146.0 332.0,190.0" fill="#4fc3c8" stroke="#ffffff" stroke-width="2" stroke-linejoin="round"/>
<polygon points="276.2,146.0 332.0,190.0 288.0,190.0" fill="#3aaebf" stroke="#ffffff" stroke-width="2" stroke-linejoin="round"/>
<circle cx="68.0" cy="190.0" r="4.2" fill="#ffffff"/>
<circle cx="78.0" cy="139.5" r="4.2" fill="#ffffff"/>
<circle cx="106.7" cy="96.7" r="4.2" fill="#ffffff"/>
<circle cx="149.5" cy="68.0" r="4.2" fill="#ffffff"/>
<circle cx="200.0" cy="58.0" r="4.2" fill="#ffffff"/>
<circle cx="250.5" cy="68.0" r="4.2" fill="#ffffff"/>
<circle cx="293.3" cy="96.7" r="4.2" fill="#ffffff"/>
<circle cx="322.0" cy="139.5" r="4.2" fill="#ffffff"/>
<circle cx="332.0" cy="190.0" r="4.2" fill="#ffffff"/>
<circle cx="112.0" cy="190.0" r="4.2" fill="#ffffff"/>
<circle cx="123.8" cy="146.0" r="4.2" fill="#ffffff"/>
<circle cx="156.0" cy="113.8" r="4.2" fill="#ffffff"/>
<circle cx="200.0" cy="102.0" r="4.2" fill="#ffffff"/>
<circle cx="244.0" cy="113.8" r="4.2" fill="#ffffff"/>
<circle cx="276.2" cy="146.0" r="4.2" fill="#ffffff"/>
<circle cx="288.0" cy="190.0" r="4.2" fill="#ffffff"/>
<circle cx="68.0" cy="228.0" r="4.2" fill="#ffffff"/>
<circle cx="332.0" cy="228.0" r="4.2" fill="#ffffff"/>
<circle cx="112.0" cy="228.0" r="4.2" fill="#ffffff"/>
<circle cx="288.0" cy="228.0" r="4.2" fill="#ffffff"/>
<line x1="200" y1="140" x2="163" y2="168" stroke="#ffffff" stroke-width="1.6" stroke-opacity="0.85"/>
<line x1="200" y1="140" x2="237" y2="166" stroke="#ffffff" stroke-width="1.6" stroke-opacity="0.85"/>
<line x1="200" y1="140" x2="200" y2="178" stroke="#ffffff" stroke-width="1.6" stroke-opacity="0.85"/>
<line x1="163" y1="168" x2="182" y2="204" stroke="#ffffff" stroke-width="1.6" stroke-opacity="0.85"/>
<line x1="163" y1="168" x2="200" y2="178" stroke="#ffffff" stroke-width="1.6" stroke-opacity="0.85"/>
<line x1="237" y1="166" x2="222" y2="206" stroke="#ffffff" stroke-width="1.6" stroke-opacity="0.85"/>
<line x1="237" y1="166" x2="200" y2="178" stroke="#ffffff" stroke-width="1.6" stroke-opacity="0.85"/>
<line x1="182" y1="204" x2="200" y2="178" stroke="#ffffff" stroke-width="1.6" stroke-opacity="0.85"/>
<line x1="222" y1="206" x2="200" y2="178" stroke="#ffffff" stroke-width="1.6" stroke-opacity="0.85"/>
<line x1="182" y1="204" x2="222" y2="206" stroke="#ffffff" stroke-width="1.6" stroke-opacity="0.85"/>
<line x1="182" y1="204" x2="170" y2="222" stroke="#ffffff" stroke-width="1.6" stroke-opacity="0.85"/>
<line x1="222" y1="206" x2="232" y2="226" stroke="#ffffff" stroke-width="1.6" stroke-opacity="0.85"/>
<line x1="170" y1="222" x2="232" y2="226" stroke="#ffffff" stroke-width="1.6" stroke-opacity="0.85"/>
<circle cx="200" cy="140" r="4.6" fill="#3fb8c4" stroke="#ffffff" stroke-width="1.6"/>
<circle cx="163" cy="168" r="4.6" fill="#ffffff" stroke="#ffffff" stroke-width="1.6"/>
<circle cx="237" cy="166" r="4.6" fill="#ffffff" stroke="#ffffff" stroke-width="1.6"/>
<circle cx="182" cy="204" r="4.6" fill="#3fb8c4" stroke="#ffffff" stroke-width="1.6"/>
<circle cx="222" cy="206" r="4.6" fill="#3fb8c4" stroke="#ffffff" stroke-width="1.6"/>
<circle cx="200" cy="178" r="4.6" fill="#3fb8c4" stroke="#ffffff" stroke-width="1.6"/>
<circle cx="170" cy="222" r="4.6" fill="#ffffff" stroke="#ffffff" stroke-width="1.6"/>
<circle cx="232" cy="226" r="4.6" fill="#ffffff" stroke="#ffffff" stroke-width="1.6"/>
</g>
</svg>